ply
format ascii 1.0
comment VCGLIB generated
comment TextureFile SpaceInteriors_Texture.png
element vertex 288
property float x
property float y
property float z
property float nx
property float ny
property float nz
property uchar red
property uchar green
property uchar blue
property uchar alpha
property float texture_u
property float texture_v
element face 208
property list uchar int vertex_indices
end_header
-0.583054 0.911988 -0.15889 -1 -1 2 192 192 192 255 0.331949 0.480875
0.583054 0.911988 -0.15889 2 -2 1 192 192 192 255 0.331949 0.480875
-0.583054 1.00377 -0.15889 -2 3 1 192 192 192 255 0.331949 0.480875
0.583054 1.00377 -0.15889 1 3 2 192 192 192 255 0.331949 0.480875
-0.583054 1.00377 -0.581024 -1 3 -2 192 192 192 255 0.331949 0.480178
0.583054 1.00377 -0.581024 2 3 -1 192 192 192 255 0.331949 0.480178
-0.583054 0.911988 -0.581024 -2 -2 -1 192 192 192 255 0.331949 0.480178
0.583054 0.911988 -0.581024 1 -1 -2 192 192 192 255 0.331949 0.480178
-0.583054 0.482285 0.494263 -1 -1 2 192 192 192 255 0.331949 0.480875
0.583054 0.482285 0.494263 2 -2 1 192 192 192 255 0.331949 0.480875
-0.583054 0.574063 0.494263 -2 3 1 192 192 192 255 0.331949 0.480875
0.583054 0.574063 0.494263 1 3 2 192 192 192 255 0.331949 0.480875
-0.583054 0.574063 0.072113 -1 3 -2 192 192 192 255 0.331949 0.480876
0.583054 0.574063 0.072113 2 3 -1 192 192 192 255 0.331949 0.480876
-0.583054 0.482285 0.072113 -2 -2 -1 192 192 192 255 0.331949 0.480875
0.583054 0.482285 0.072113 1 -1 -2 192 192 192 255 0.331949 0.480875
0.584454 0.936786 -0.15889 -2 -2.56116 -1.25011 192 192 192 255 0.299145 0.47948
0.656006 0.936786 -0.15889 4 -2.78058 -0.625053 192 192 192 255 0.299145 0.47948
0.584454 1.02856 -0.15889 -4 2.78058 0.625053 192 192 192 255 0.39337 0.482271
0.656006 1.02856 -0.15889 2 2.56116 1.25011 192 192 192 255 0.39337 0.482271
0.584454 1.02856 -0.581024 -2 3 0 192 192 192 255 0.39337 0.482271
0.656006 1.02856 -0.581024 4 3 0 192 192 192 255 0.39337 0.482271
0.584454 0.936786 -0.581024 -6 -2 1 192 192 192 255 0.299145 0.47948
0.656006 0.936786 -0.581024 3 -1 2 192 192 192 255 0.299145 0.47948
0.584454 1.02856 -0.670853 -2 1 -2 192 192 192 255 0.331949 0.480876
0.656006 1.02856 -0.670853 1 2 -1 192 192 192 255 0.331949 0.480876
0.656006 0.936786 -0.670853 4 0 -3 192 192 192 255 0.331949 0.480875
0.584454 0.936786 -0.670853 -2 0 -3 192 192 192 255 0.331949 0.480875
0.584454 0.348025 0.57637 -4 -0.780582 -2.62505 192 192 192 255 0.299145 0.47948
0.656006 0.348025 0.57637 5 -1.56116 -2.25011 192 192 192 255 0.299145 0.47948
0.656006 0.439803 0.57637 3 2.21518 2.01858 192 192 192 255 0.364753 0.480178
0.584454 0.439803 0.57637 -3 2.27847 1.94687 192 192 192 255 0.39337 0.482271
0.584454 0.348025 0.670853 -4 0 1 192 192 192 255 0.364753 0.480178
0.656006 0.348025 0.670853 2 0 2 192 192 192 255 0.364753 0.480178
0.656006 0.348025 0.670853 2 0.7173 0.696764 192 192 192 255 0.364753 0.480178
0.584454 0.348025 0.670853 -1 1.4346 1.39353 192 192 192 255 0.364753 0.480178
0.584454 0.106992 0.57637 -3 0 -3 192 192 192 255 0.331949 0.480875
0.656006 0.106992 0.57637 3 0 -3 192 192 192 255 0.331949 0.480875
0.656006 0.106992 0.670853 3 0 3 192 192 192 255 0.364753 0.480178
0.584454 0.106992 0.670853 -3 0 3 192 192 192 255 0.331949 0.480875
0.584454 0.106992 -0.581024 -3 0 3 192 192 192 255 0.331949 0.480875
0.656006 0.106992 -0.581024 3 0 3 192 192 192 255 0.331949 0.480875
0.584454 0.106992 -0.670853 -3 0 -3 192 192 192 255 0.364753 0.480178
0.656006 0.106992 -0.670853 3 0 -3 192 192 192 255 0.331949 0.480875
0.584454 0 -0.581024 -1 -1 2 192 192 192 255 0.135822 0.47599
0.656006 0 -0.581024 2 -2 1 192 192 192 255 0.135822 0.47599
0.584454 0 -0.670853 -2 -2 -1 192 192 192 255 0.135822 0.47599
0.656006 0 -0.670853 1 -1 -2 192 192 192 255 0.135822 0.47599
0.584454 0 0.57637 -2 -2 -1 192 192 192 255 0.135822 0.47599
0.656006 0 0.57637 1 -1 -2 192 192 192 255 0.135822 0.47599
0.656006 0 0.670853 2 -2 1 192 192 192 255 0.135822 0.47599
0.584454 0 0.670853 -1 -1 2 192 192 192 255 0.135822 0.47599
-0.577978 0.414837 0.382751 -1 -3 2 192 192 192 255 0.299145 0.47948
0.584454 0.414837 0.382751 2 -3 1 192 192 192 255 0.299145 0.47948
-0.577978 0.414837 -0.663132 -2 -3 -1 192 192 192 255 0.299145 0.47948
0.584454 0.414837 -0.663132 1 -3 -2 192 192 192 255 0.299145 0.47948
-0.486288 0.414837 0.317963 2 -3 -1 192 192 192 255 0.299145 0.47948
0.486288 0.414837 0.317963 -1 -3 -2 192 192 192 255 0.299145 0.47948
0.486288 0.414837 -0.598343 -2 -3 1 192 192 192 255 0.299145 0.47948
-0.486288 0.414837 -0.598343 1 -3 2 192 192 192 255 0.299145 0.47948
-0.577978 0.4835 0.382751 -2 3 1 192 192 192 255 0.364753 0.480178
0.584454 0.4835 0.382751 1 3 2 192 192 192 255 0.364753 0.480178
0.486288 0.4835 0.317963 -2 3 -1 192 192 192 255 0.364753 0.480178
-0.486288 0.4835 0.317963 1 3 -2 192 192 192 255 0.364753 0.480178
0.584454 0.4835 -0.663132 2 3 -1 192 192 192 255 0.39337 0.482271
0.486288 0.4835 -0.598343 -1 3 2 192 192 192 255 0.39337 0.482271
-0.577978 0.4835 -0.663132 -1 3 -2 192 192 192 255 0.39337 0.482271
-0.486288 0.4835 -0.598343 2 3 1 192 192 192 255 0.39337 0.482271
-0.584454 0.936786 -0.15889 2 -2.56116 -1.25011 192 192 192 255 0.299145 0.47948
-0.656006 0.936786 -0.15889 -4 -2.78058 -0.625053 192 192 192 255 0.299145 0.47948
-0.584454 1.02856 -0.15889 4 2.78058 0.625053 192 192 192 255 0.39337 0.482271
-0.656006 1.02856 -0.15889 -2 2.56116 1.25011 192 192 192 255 0.39337 0.482271
-0.584454 1.02856 -0.581024 2 3 0 192 192 192 255 0.39337 0.482271
-0.656006 1.02856 -0.581024 -4 3 0 192 192 192 255 0.39337 0.482271
-0.584454 0.936786 -0.581024 6 -2 1 192 192 192 255 0.299145 0.47948
-0.656006 0.936786 -0.581024 -3 -1 2 192 192 192 255 0.299145 0.47948
-0.584454 1.02856 -0.670853 2 1 -2 192 192 192 255 0.331949 0.480876
-0.656006 1.02856 -0.670853 -1 2 -1 192 192 192 255 0.331949 0.480876
-0.656006 0.936786 -0.670853 -4 0 -3 192 192 192 255 0.331949 0.480875
-0.584454 0.936786 -0.670853 2 0 -3 192 192 192 255 0.331949 0.480875
-0.584454 0.348025 0.57637 4 -0.780582 -2.62505 192 192 192 255 0.299145 0.47948
-0.656006 0.348025 0.57637 -5 -1.56116 -2.25011 192 192 192 255 0.299145 0.47948
-0.656006 0.439803 0.57637 -3 2.21518 2.01858 192 192 192 255 0.364753 0.480178
-0.584454 0.439803 0.57637 3 2.27847 1.94687 192 192 192 255 0.39337 0.482271
-0.584454 0.348025 0.670853 4 0 1 192 192 192 255 0.364753 0.480178
-0.656006 0.348025 0.670853 -2 0 2 192 192 192 255 0.364753 0.480178
-0.656006 0.348025 0.670853 -2 0.7173 0.696764 192 192 192 255 0.364753 0.480178
-0.584454 0.348025 0.670853 1 1.4346 1.39353 192 192 192 255 0.364753 0.480178
-0.584454 0.106992 0.57637 3 0 -3 192 192 192 255 0.331949 0.480875
-0.656006 0.106992 0.57637 -3 0 -3 192 192 192 255 0.331949 0.480875
-0.656006 0.106992 0.670853 -3 0 3 192 192 192 255 0.364753 0.480178
-0.584454 0.106992 0.670853 3 0 3 192 192 192 255 0.331949 0.480875
-0.584454 0.106992 -0.581024 3 0 3 192 192 192 255 0.331949 0.480875
-0.656006 0.106992 -0.581024 -3 0 3 192 192 192 255 0.331949 0.480875
-0.584454 0.106992 -0.670853 3 0 -3 192 192 192 255 0.364753 0.480178
-0.656006 0.106992 -0.670853 -3 0 -3 192 192 192 255 0.331949 0.480875
-0.584454 0 -0.581024 1 -1 2 192 192 192 255 0.135822 0.47599
-0.656006 0 -0.581024 -2 -2 1 192 192 192 255 0.135822 0.47599
-0.584454 0 -0.670853 2 -2 -1 192 192 192 255 0.135822 0.47599
-0.656006 0 -0.670853 -1 -1 -2 192 192 192 255 0.135822 0.47599
-0.584454 0 0.57637 2 -2 -1 192 192 192 255 0.135822 0.47599
-0.656006 0 0.57637 -1 -1 -2 192 192 192 255 0.135822 0.47599
-0.656006 0 0.670853 -2 -2 1 192 192 192 255 0.135822 0.47599
-0.584454 0 0.670853 1 -1 2 192 192 192 255 0.135822 0.47599
-0.511509 1.00377 -0.214554 0 5 0 192 192 192 255 0.354982 0.47948
0.511509 1.00377 -0.214554 0 4 0 192 192 192 255 0.354982 0.47948
0.511509 1.00377 -0.52536 0 5 0 192 192 192 255 0.354982 0.47948
-0.511509 1.00377 -0.52536 0 4 0 192 192 192 255 0.354982 0.47948
-0.511509 0.574063 0.438583 0 5 0 192 192 192 255 0.354982 0.47948
0.511509 0.574063 0.438583 0 4 0 192 192 192 255 0.354982 0.47948
0.511509 0.574063 0.127777 0 5 0 192 192 192 255 0.354982 0.47948
-0.511509 0.574063 0.127777 0 4 0 192 192 192 255 0.354982 0.47948
-0.583054 0.911988 -0.581024 -2 -2 -1 192 192 192 255 0.299145 0.47948
0.583054 0.911988 -0.581024 1 -1 -2 192 192 192 255 0.299145 0.47948
0.583054 0.911988 -0.15889 2 -2 1 192 192 192 255 0.299145 0.47948
-0.583054 0.911988 -0.15889 -1 -1 2 192 192 192 255 0.299145 0.47948
0.583054 0.911988 -0.15889 2 -2 1 192 192 192 255 0.364753 0.480178
0.583054 0.911988 -0.581024 1 -1 -2 192 192 192 255 0.364753 0.480178
0.583054 1.00377 -0.581024 2 3 -1 192 192 192 255 0.364753 0.480178
0.583054 1.00377 -0.15889 1 3 2 192 192 192 255 0.364753 0.480178
-0.583054 0.911988 -0.581024 -2 -2 -1 192 192 192 255 0.364753 0.480178
-0.583054 0.911988 -0.15889 -1 -1 2 192 192 192 255 0.364753 0.480178
-0.583054 1.00377 -0.15889 -2 3 1 192 192 192 255 0.364753 0.480178
-0.583054 1.00377 -0.581024 -1 3 -2 192 192 192 255 0.364753 0.480178
-0.583054 0.482285 0.072113 -2 -2 -1 192 192 192 255 0.299145 0.47948
0.583054 0.482285 0.072113 1 -1 -2 192 192 192 255 0.299145 0.47948
0.583054 0.482285 0.494263 2 -2 1 192 192 192 255 0.299145 0.47948
-0.583054 0.482285 0.494263 -1 -1 2 192 192 192 255 0.299145 0.47948
0.583054 0.482285 0.494263 2 -2 1 192 192 192 255 0.364753 0.480178
0.583054 0.482285 0.072113 1 -1 -2 192 192 192 255 0.364753 0.480178
0.583054 0.574063 0.072113 2 3 -1 192 192 192 255 0.364753 0.480178
0.583054 0.574063 0.494263 1 3 2 192 192 192 255 0.364753 0.480178
-0.583054 0.482285 0.072113 -2 -2 -1 192 192 192 255 0.364753 0.480178
-0.583054 0.482285 0.494263 -1 -1 2 192 192 192 255 0.364753 0.480178
-0.583054 0.574063 0.494263 -2 3 1 192 192 192 255 0.364753 0.480178
-0.583054 0.574063 0.072113 -1 3 -2 192 192 192 255 0.364753 0.480178
0.656006 0.936786 -0.15889 4 -2.78058 -0.625053 192 192 192 255 0.364753 0.480178
0.656006 0.936786 -0.581024 3 -1 2 192 192 192 255 0.364753 0.480178
0.656006 1.02856 -0.581024 4 3 0 192 192 192 255 0.364753 0.480178
0.656006 1.02856 -0.15889 2 2.56116 1.25011 192 192 192 255 0.364753 0.480178
0.584454 0.936786 -0.581024 -6 -2 1 192 192 192 255 0.364753 0.480178
0.584454 0.936786 -0.15889 -2 -2.56116 -1.25011 192 192 192 255 0.364753 0.480178
0.584454 1.02856 -0.15889 -4 2.78058 0.625053 192 192 192 255 0.364753 0.480178
0.584454 1.02856 -0.581024 -2 3 0 192 192 192 255 0.364753 0.480178
0.656006 1.02856 -0.670853 1 2 -1 192 192 192 255 0.39337 0.482271
0.584454 1.02856 -0.670853 -2 1 -2 192 192 192 255 0.39337 0.482271
0.656006 0.936786 -0.670853 4 0 -3 192 192 192 255 0.364753 0.480178
0.656006 1.02856 -0.670853 1 2 -1 192 192 192 255 0.364753 0.480178
0.584454 1.02856 -0.670853 -2 1 -2 192 192 192 255 0.364753 0.480178
0.584454 0.936786 -0.670853 -2 0 -3 192 192 192 255 0.364753 0.480178
0.656006 0.348025 0.57637 5 -1.56116 -2.25011 192 192 192 255 0.364753 0.480178
0.656006 0.439803 0.57637 3 2.21518 2.01858 192 192 192 255 0.39337 0.482271
0.584454 0.348025 0.57637 -4 -0.780582 -2.62505 192 192 192 255 0.364753 0.480178
0.584454 0.439803 0.57637 -3 2.27847 1.94687 192 192 192 255 0.364753 0.480178
0.584454 0.348025 0.670853 -1 1.4346 1.39353 192 192 192 255 0.39337 0.482271
0.656006 0.348025 0.670853 2 0.7173 0.696764 192 192 192 255 0.39337 0.482271
0.584454 0.348025 0.57637 -4 -0.780582 -2.62505 192 192 192 255 0.331949 0.480875
0.656006 0.348025 0.57637 5 -1.56116 -2.25011 192 192 192 255 0.331949 0.480875
0.656006 0.106992 0.57637 3 0 -3 192 192 192 255 0.364753 0.480178
0.656006 0.348025 0.670853 2 0 2 192 192 192 255 0.331949 0.480875
0.584454 0.348025 0.670853 -4 0 1 192 192 192 255 0.331949 0.480875
0.656006 0.106992 0.670853 3 0 3 192 192 192 255 0.331949 0.480875
0.584454 0.106992 0.57637 -3 0 -3 192 192 192 255 0.364753 0.480178
0.584454 0.106992 0.670853 -3 0 3 192 192 192 255 0.364753 0.480178
0.656006 0.936786 -0.581024 3 -1 2 192 192 192 255 0.331949 0.480875
0.584454 0.936786 -0.581024 -6 -2 1 192 192 192 255 0.331949 0.480875
0.584454 0.106992 -0.581024 -3 0 3 192 192 192 255 0.364753 0.480178
0.584454 0.106992 -0.670853 -3 0 -3 192 192 192 255 0.331949 0.480875
0.656006 0.106992 -0.581024 3 0 3 192 192 192 255 0.364753 0.480178
0.656006 0.106992 -0.670853 3 0 -3 192 192 192 255 0.364753 0.480178
0.656006 0.106992 -0.581024 3 0 3 192 192 192 255 0.103018 0.476688
0.584454 0.106992 -0.581024 -3 0 3 192 192 192 255 0.103018 0.476688
0.584454 0 -0.581024 -1 -1 2 192 192 192 255 0.103018 0.476688
0.656006 0 -0.581024 2 -2 1 192 192 192 255 0.103018 0.476688
0.584454 0.106992 -0.581024 -3 0 3 192 192 192 255 0.135822 0.47599
0.584454 0.106992 -0.670853 -3 0 -3 192 192 192 255 0.135822 0.47599
0.584454 0.106992 -0.670853 -3 0 -3 192 192 192 255 0.103018 0.476688
0.656006 0.106992 -0.670853 3 0 -3 192 192 192 255 0.103018 0.476688
0.656006 0 -0.670853 1 -1 -2 192 192 192 255 0.103018 0.476688
0.584454 0 -0.670853 -2 -2 -1 192 192 192 255 0.103018 0.476688
0.656006 0.106992 -0.670853 3 0 -3 192 192 192 255 0.135822 0.47599
0.656006 0.106992 -0.581024 3 0 3 192 192 192 255 0.135822 0.47599
0.584454 0.106992 0.57637 -3 0 -3 192 192 192 255 0.103018 0.476688
0.656006 0.106992 0.57637 3 0 -3 192 192 192 255 0.103018 0.476688
0.656006 0 0.57637 1 -1 -2 192 192 192 255 0.103018 0.476688
0.584454 0 0.57637 -2 -2 -1 192 192 192 255 0.103018 0.476688
0.656006 0.106992 0.57637 3 0 -3 192 192 192 255 0.135822 0.47599
0.656006 0.106992 0.670853 3 0 3 192 192 192 255 0.135822 0.47599
0.656006 0.106992 0.670853 3 0 3 192 192 192 255 0.103018 0.476688
0.584454 0.106992 0.670853 -3 0 3 192 192 192 255 0.103018 0.476688
0.584454 0 0.670853 -1 -1 2 192 192 192 255 0.103018 0.476688
0.656006 0 0.670853 2 -2 1 192 192 192 255 0.103018 0.476688
0.584454 0.106992 0.670853 -3 0 3 192 192 192 255 0.135822 0.47599
0.584454 0.106992 0.57637 -3 0 -3 192 192 192 255 0.135822 0.47599
0.584454 0.4835 0.382751 1 3 2 192 192 192 255 0.39337 0.482271
0.486288 0.4835 0.317963 -2 3 -1 192 192 192 255 0.39337 0.482271
-0.577978 0.4835 0.382751 -2 3 1 192 192 192 255 0.39337 0.482271
-0.486288 0.4835 0.317963 1 3 -2 192 192 192 255 0.39337 0.482271
-0.577978 0.414837 0.382751 -1 -3 2 192 192 192 255 0.364753 0.480178
0.584454 0.414837 0.382751 2 -3 1 192 192 192 255 0.364753 0.480178
0.486288 0.414837 0.317963 -1 -3 -2 192 192 192 255 0.364753 0.480178
-0.486288 0.414837 0.317963 2 -3 -1 192 192 192 255 0.364753 0.480178
0.584454 0.414837 -0.663132 1 -3 -2 192 192 192 255 0.364753 0.480178
0.584454 0.4835 -0.663132 2 3 -1 192 192 192 255 0.364753 0.480178
0.486288 0.414837 -0.598343 -2 -3 1 192 192 192 255 0.364753 0.480178
0.486288 0.4835 -0.598343 -1 3 2 192 192 192 255 0.364753 0.480178
0.584454 0.414837 -0.663132 1 -3 -2 192 192 192 255 0.331949 0.480876
-0.577978 0.414837 -0.663132 -2 -3 -1 192 192 192 255 0.331949 0.480876
-0.577978 0.4835 -0.663132 -1 3 -2 192 192 192 255 0.331949 0.480876
0.584454 0.4835 -0.663132 2 3 -1 192 192 192 255 0.331949 0.480876
-0.486288 0.414837 -0.598343 1 -3 2 192 192 192 255 0.364753 0.480178
-0.486288 0.4835 -0.598343 2 3 1 192 192 192 255 0.364753 0.480178
-0.577978 0.414837 -0.663132 -2 -3 -1 192 192 192 255 0.364753 0.480178
-0.577978 0.4835 -0.663132 -1 3 -2 192 192 192 255 0.364753 0.480178
-0.656006 0.936786 -0.15889 -4 -2.78058 -0.625053 192 192 192 255 0.364753 0.480178
-0.656006 1.02856 -0.15889 -2 2.56116 1.25011 192 192 192 255 0.364753 0.480178
-0.656006 1.02856 -0.581024 -4 3 0 192 192 192 255 0.364753 0.480178
-0.656006 0.936786 -0.581024 -3 -1 2 192 192 192 255 0.364753 0.480178
-0.584454 0.936786 -0.581024 6 -2 1 192 192 192 255 0.364753 0.480178
-0.584454 1.02856 -0.581024 2 3 0 192 192 192 255 0.364753 0.480178
-0.584454 1.02856 -0.15889 4 2.78058 0.625053 192 192 192 255 0.364753 0.480178
-0.584454 0.936786 -0.15889 2 -2.56116 -1.25011 192 192 192 255 0.364753 0.480178
-0.584454 1.02856 -0.670853 2 1 -2 192 192 192 255 0.39337 0.482271
-0.656006 1.02856 -0.670853 -1 2 -1 192 192 192 255 0.39337 0.482271
-0.656006 1.02856 -0.670853 -1 2 -1 192 192 192 255 0.364753 0.480178
-0.656006 0.936786 -0.670853 -4 0 -3 192 192 192 255 0.364753 0.480178
-0.584454 0.936786 -0.670853 2 0 -3 192 192 192 255 0.364753 0.480178
-0.584454 1.02856 -0.670853 2 1 -2 192 192 192 255 0.364753 0.480178
-0.656006 0.348025 0.57637 -5 -1.56116 -2.25011 192 192 192 255 0.364753 0.480178
-0.656006 0.439803 0.57637 -3 2.21518 2.01858 192 192 192 255 0.39337 0.482271
-0.584454 0.439803 0.57637 3 2.27847 1.94687 192 192 192 255 0.364753 0.480178
-0.584454 0.348025 0.57637 4 -0.780582 -2.62505 192 192 192 255 0.364753 0.480178
-0.656006 0.348025 0.670853 -2 0.7173 0.696764 192 192 192 255 0.39337 0.482271
-0.584454 0.348025 0.670853 1 1.4346 1.39353 192 192 192 255 0.39337 0.482271
-0.584454 0.348025 0.57637 4 -0.780582 -2.62505 192 192 192 255 0.331949 0.480875
-0.656006 0.348025 0.57637 -5 -1.56116 -2.25011 192 192 192 255 0.331949 0.480875
-0.656006 0.106992 0.57637 -3 0 -3 192 192 192 255 0.364753 0.480178
-0.656006 0.348025 0.670853 -2 0 2 192 192 192 255 0.331949 0.480875
-0.656006 0.106992 0.670853 -3 0 3 192 192 192 255 0.331949 0.480875
-0.584454 0.348025 0.670853 4 0 1 192 192 192 255 0.331949 0.480875
-0.584454 0.106992 0.670853 3 0 3 192 192 192 255 0.364753 0.480178
-0.584454 0.106992 0.57637 3 0 -3 192 192 192 255 0.364753 0.480178
-0.656006 0.936786 -0.581024 -3 -1 2 192 192 192 255 0.331949 0.480875
-0.584454 0.936786 -0.581024 6 -2 1 192 192 192 255 0.331949 0.480875
-0.584454 0.106992 -0.581024 3 0 3 192 192 192 255 0.364753 0.480178
-0.584454 0.106992 -0.670853 3 0 -3 192 192 192 255 0.331949 0.480875
-0.656006 0.106992 -0.670853 -3 0 -3 192 192 192 255 0.364753 0.480178
-0.656006 0.106992 -0.581024 -3 0 3 192 192 192 255 0.364753 0.480178
-0.656006 0.106992 -0.581024 -3 0 3 192 192 192 255 0.103018 0.476688
-0.656006 0 -0.581024 -2 -2 1 192 192 192 255 0.103018 0.476688
-0.584454 0 -0.581024 1 -1 2 192 192 192 255 0.103018 0.476688
-0.584454 0.106992 -0.581024 3 0 3 192 192 192 255 0.103018 0.476688
-0.584454 0.106992 -0.581024 3 0 3 192 192 192 255 0.135822 0.47599
-0.584454 0.106992 -0.670853 3 0 -3 192 192 192 255 0.135822 0.47599
-0.584454 0.106992 -0.670853 3 0 -3 192 192 192 255 0.103018 0.476688
-0.584454 0 -0.670853 2 -2 -1 192 192 192 255 0.103018 0.476688
-0.656006 0 -0.670853 -1 -1 -2 192 192 192 255 0.103018 0.476688
-0.656006 0.106992 -0.670853 -3 0 -3 192 192 192 255 0.103018 0.476688
-0.656006 0.106992 -0.670853 -3 0 -3 192 192 192 255 0.135822 0.47599
-0.656006 0.106992 -0.581024 -3 0 3 192 192 192 255 0.135822 0.47599
-0.584454 0.106992 0.57637 3 0 -3 192 192 192 255 0.103018 0.476688
-0.584454 0 0.57637 2 -2 -1 192 192 192 255 0.103018 0.476688
-0.656006 0 0.57637 -1 -1 -2 192 192 192 255 0.103018 0.476688
-0.656006 0.106992 0.57637 -3 0 -3 192 192 192 255 0.103018 0.476688
-0.656006 0.106992 0.57637 -3 0 -3 192 192 192 255 0.135822 0.47599
-0.656006 0.106992 0.670853 -3 0 3 192 192 192 255 0.135822 0.47599
-0.656006 0.106992 0.670853 -3 0 3 192 192 192 255 0.103018 0.476688
-0.656006 0 0.670853 -2 -2 1 192 192 192 255 0.103018 0.476688
-0.584454 0 0.670853 1 -1 2 192 192 192 255 0.103018 0.476688
-0.584454 0.106992 0.670853 3 0 3 192 192 192 255 0.103018 0.476688
-0.584454 0.106992 0.670853 3 0 3 192 192 192 255 0.135822 0.47599
-0.584454 0.106992 0.57637 3 0 -3 192 192 192 255 0.135822 0.47599
-0.583054 1.00377 -0.15889 -2 3 1 192 192 192 255 0.39337 0.482271
0.583054 1.00377 -0.15889 1 3 2 192 192 192 255 0.39337 0.482271
0.511509 1.00377 -0.214554 0 4 0 192 192 192 255 0.39337 0.482271
-0.511509 1.00377 -0.214554 0 5 0 192 192 192 255 0.39337 0.482271
0.583054 1.00377 -0.581024 2 3 -1 192 192 192 255 0.39337 0.482271
0.511509 1.00377 -0.52536 0 5 0 192 192 192 255 0.39337 0.482271
-0.583054 1.00377 -0.581024 -1 3 -2 192 192 192 255 0.39337 0.482271
-0.511509 1.00377 -0.52536 0 4 0 192 192 192 255 0.39337 0.482271
-0.583054 0.574063 0.494263 -2 3 1 192 192 192 255 0.39337 0.482271
0.583054 0.574063 0.494263 1 3 2 192 192 192 255 0.39337 0.482271
0.511509 0.574063 0.438583 0 4 0 192 192 192 255 0.39337 0.482271
-0.511509 0.574063 0.438583 0 5 0 192 192 192 255 0.39337 0.482271
0.583054 0.574063 0.072113 2 3 -1 192 192 192 255 0.39337 0.482271
0.511509 0.574063 0.127777 0 5 0 192 192 192 255 0.39337 0.482271
-0.583054 0.574063 0.072113 -1 3 -2 192 192 192 255 0.39337 0.482271
-0.511509 0.574063 0.127777 0 4 0 192 192 192 255 0.39337 0.482271
3 0 1 3 
3 0 3 2 
3 104 105 106 
3 104 106 107 
3 4 5 7 
3 4 7 6 
3 112 113 114 
3 112 114 115 
3 116 117 118 
3 116 118 119 
3 120 121 122 
3 120 122 123 
3 8 9 11 
3 8 11 10 
3 108 109 110 
3 108 110 111 
3 12 13 15 
3 12 15 14 
3 124 125 126 
3 124 126 127 
3 128 129 130 
3 128 130 131 
3 132 133 134 
3 132 134 135 
3 32 33 34 
3 32 34 35 
3 18 19 21 
3 18 21 20 
3 24 25 26 
3 24 26 27 
3 22 23 17 
3 22 17 16 
3 136 137 138 
3 136 138 139 
3 140 141 142 
3 140 142 143 
3 20 21 144 
3 20 144 145 
3 138 137 146 
3 138 146 147 
3 45 44 46 
3 45 46 47 
3 140 143 148 
3 140 148 149 
3 16 17 29 
3 16 29 28 
3 136 139 30 
3 136 30 150 
3 19 18 31 
3 19 31 151 
3 142 141 152 
3 142 152 153 
3 48 49 50 
3 48 50 51 
3 150 30 34 
3 150 34 33 
3 151 31 154 
3 151 154 155 
3 153 152 32 
3 153 32 35 
3 156 157 37 
3 156 37 36 
3 150 33 38 
3 150 38 158 
3 159 160 39 
3 159 39 161 
3 32 152 162 
3 32 162 163 
3 164 165 40 
3 164 40 41 
3 140 149 42 
3 140 42 166 
3 27 26 43 
3 27 43 167 
3 146 137 168 
3 146 168 169 
3 170 171 172 
3 170 172 173 
3 174 175 46 
3 174 46 44 
3 176 177 178 
3 176 178 179 
3 180 181 45 
3 180 45 47 
3 182 183 184 
3 182 184 185 
3 186 187 50 
3 186 50 49 
3 188 189 190 
3 188 190 191 
3 192 193 48 
3 192 48 51 
3 60 61 62 
3 60 62 63 
3 194 64 65 
3 194 65 195 
3 64 66 67 
3 64 67 65 
3 66 196 197 
3 66 197 67 
3 52 56 57 
3 52 57 53 
3 53 57 58 
3 53 58 55 
3 55 58 59 
3 55 59 54 
3 54 59 56 
3 54 56 52 
3 198 199 61 
3 198 61 60 
3 200 201 63 
3 200 63 62 
3 199 202 203 
3 199 203 61 
3 204 200 62 
3 204 62 205 
3 206 207 208 
3 206 208 209 
3 210 204 205 
3 210 205 211 
3 212 198 60 
3 212 60 213 
3 201 210 211 
3 201 211 63 
3 84 87 86 
3 84 86 85 
3 70 72 73 
3 70 73 71 
3 76 79 78 
3 76 78 77 
3 74 68 69 
3 74 69 75 
3 214 215 216 
3 214 216 217 
3 218 219 220 
3 218 220 221 
3 72 222 223 
3 72 223 73 
3 216 224 225 
3 216 225 217 
3 97 99 98 
3 97 98 96 
3 218 226 227 
3 218 227 219 
3 68 80 81 
3 68 81 69 
3 214 228 82 
3 214 82 215 
3 71 229 83 
3 71 83 70 
3 220 230 231 
3 220 231 221 
3 100 103 102 
3 100 102 101 
3 228 85 86 
3 228 86 82 
3 229 232 233 
3 229 233 83 
3 230 87 84 
3 230 84 231 
3 234 88 89 
3 234 89 235 
3 228 236 90 
3 228 90 85 
3 237 238 91 
3 237 91 239 
3 84 240 241 
3 84 241 231 
3 242 93 92 
3 242 92 243 
3 218 244 94 
3 218 94 226 
3 79 245 95 
3 79 95 78 
3 225 246 247 
3 225 247 217 
3 248 249 250 
3 248 250 251 
3 252 96 98 
3 252 98 253 
3 254 255 256 
3 254 256 257 
3 258 99 97 
3 258 97 259 
3 260 261 262 
3 260 262 263 
3 264 101 102 
3 264 102 265 
3 266 267 268 
3 266 268 269 
3 270 103 100 
3 270 100 271 
3 272 273 274 
3 272 274 275 
3 273 276 277 
3 273 277 274 
3 276 278 279 
3 276 279 277 
3 278 272 275 
3 278 275 279 
3 280 281 282 
3 280 282 283 
3 281 284 285 
3 281 285 282 
3 284 286 287 
3 284 287 285 
3 286 280 283 
3 286 283 287 
