ply
format ascii 1.0
comment VCGLIB generated
comment TextureFile SpaceInteriors_Texture.png
element vertex 454
property float x
property float y
property float z
property float nx
property float ny
property float nz
property uchar red
property uchar green
property uchar blue
property uchar alpha
property float texture_u
property float texture_v
element face 248
property list uchar int vertex_indices
end_header
-0.772891 0.112325 -1.35166 -1.99999 -1 -0.999981 192 192 192 255 0.166942 0.473617
-0.77289 0.112325 -1.24377 -1.00002 -2 2.00001 192 192 192 255 0.166942 0.473617
-0.772891 0.393686 -1.35166 -0.999987 2 -1.99999 192 192 192 255 0.166942 0.473617
-0.77289 0.393686 -1.24377 -2.00001 1 1.00002 192 192 192 255 0.166942 0.473617
-0.629323 0.393686 -1.35166 2.00001 1 -1.00006 192 192 192 255 0.202266 0.473617
-0.62932 0.393686 -1.24377 0.999985 2 1.99997 192 192 192 255 0.202266 0.473617
-0.629323 0.112325 -1.35166 1.00001 -2 -2.00003 192 192 192 255 0.166942 0.473617
-0.62932 0.112325 -1.24377 1.99999 -1 0.999945 192 192 192 255 0.166942 0.473617
-0.778829 0.112325 1.23927 -1.99999 -1 -0.999964 192 192 192 255 0.166942 0.473617
-0.778827 0.112325 1.34715 -1 -2 2.00002 192 192 192 255 0.166942 0.473617
-0.778829 0.393686 1.23927 -0.999985 2 -1.99998 192 192 192 255 0.166942 0.473617
-0.778827 0.393686 1.34715 -2 1 1.00004 192 192 192 255 0.166942 0.473617
-0.634153 0.393686 1.23927 2.00001 1 -0.999964 192 192 192 255 0.202266 0.473617
-0.634155 0.393686 1.34715 1 2 2.00002 192 192 192 255 0.202266 0.473617
-0.634153 0.112325 1.23927 1.00001 -2 -1.99998 192 192 192 255 0.166942 0.473617
-0.634155 0.112325 1.34715 2 -1 1.00004 192 192 192 255 0.166942 0.473617
-0.744214 0 -1.43128 -2 -1 -0.999985 192 192 192 255 0.350439 0.062398
-0.744212 0 -1.16417 -1 -2 2.00001 192 192 192 255 0.350439 0.062398
-0.744214 0.255775 -1.43128 -1 2 -1.99999 192 192 192 255 0.350439 0.062398
-0.744212 0.255775 -1.16417 -2 1 1.00002 192 192 192 255 0.350439 0.062398
-0.658002 0.255775 -1.43128 2 1 -1.00002 192 192 192 255 0.385763 0.062398
-0.658 0.255775 -1.16417 1 2 1.99999 192 192 192 255 0.385763 0.062398
-0.658002 0 -1.43128 1 -2 -2.00001 192 192 192 255 0.350439 0.062398
-0.658 0 -1.16417 2 -1 0.999985 192 192 192 255 0.350439 0.062398
-0.749927 0 1.15966 -2.00001 -1 -1.00002 192 192 192 255 0.350439 0.062398
-0.749929 0 1.42676 -0.999975 -2 1.99999 192 192 192 255 0.350439 0.062398
-0.749927 0.255775 1.15966 -1.00002 2 -2.00001 192 192 192 255 0.350439 0.062398
-0.749929 0.255775 1.42676 -1.99999 1 0.999985 192 192 192 255 0.350439 0.062398
-0.663055 0.255775 1.15966 1.99999 1 -1.00002 192 192 192 255 0.385763 0.062398
-0.663053 0.255775 1.42676 1.00002 2 1.99999 192 192 192 255 0.385763 0.062398
-0.663055 0 1.15966 0.999978 -2 -2.00001 192 192 192 255 0.350439 0.062398
-0.663053 0 1.42676 2.00001 -1 0.999985 192 192 192 255 0.350439 0.062398
0.629323 0.112325 -1.35166 -2.00001 -1 -0.999981 192 192 192 255 0.166942 0.473617
0.629324 0.112325 -1.24377 -0.999972 -2 2.00001 192 192 192 255 0.166942 0.473617
0.629323 0.393686 -1.35166 -1.00003 2 -1.99999 192 192 192 255 0.166942 0.473617
0.629324 0.393686 -1.24377 -1.99999 1 1.00002 192 192 192 255 0.166942 0.473617
0.772893 0.393686 -1.35166 1.99999 1 -1.00002 192 192 192 255 0.202266 0.473617
0.772894 0.393686 -1.24377 1.00003 2 1.99999 192 192 192 255 0.202266 0.473617
0.772893 0.112325 -1.35166 0.999973 -2 -2.00001 192 192 192 255 0.166942 0.473617
0.772894 0.112325 -1.24377 2.00001 -1 0.999981 192 192 192 255 0.166942 0.473617
0.634157 0.112325 1.23927 -1.99999 -1 -1.00002 192 192 192 255 0.166942 0.473617
0.634156 0.112325 1.34715 -1.00001 -2 1.99999 192 192 192 255 0.166942 0.473617
0.634157 0.393686 1.23927 -0.999987 2 -2.00001 192 192 192 255 0.166942 0.473617
0.634156 0.393686 1.34715 -2.00001 1 0.999981 192 192 192 255 0.166942 0.473617
0.77883 0.393686 1.23927 2.00001 1 -0.999964 192 192 192 255 0.202266 0.473617
0.778828 0.393686 1.34715 0.999985 2 2.00002 192 192 192 255 0.202266 0.473617
0.77883 0.112325 1.23927 1.00001 -2 -1.99998 192 192 192 255 0.166942 0.473617
0.778828 0.112325 1.34715 1.99999 -1 1.00004 192 192 192 255 0.166942 0.473617
0.658004 0 -1.43127 -1.99998 -1 -1.00001 192 192 192 255 0.350439 0.062398
0.658002 0 -1.16417 -0.999953 -2 1.99999 192 192 192 255 0.350439 0.062398
0.658004 0.255775 -1.43127 -0.999953 2 -2.00001 192 192 192 255 0.350439 0.062398
0.658002 0.255775 -1.16417 -1.99998 1 0.999985 192 192 192 255 0.350439 0.062398
0.744212 0.255775 -1.43127 2.00002 1 -1.00002 192 192 192 255 0.385763 0.062398
0.744214 0.255775 -1.16417 1.00005 2 1.99999 192 192 192 255 0.385763 0.062398
0.744212 0 -1.43127 1.00005 -2 -2.00001 192 192 192 255 0.350439 0.062398
0.744214 0 -1.16417 2.00002 -1 0.999985 192 192 192 255 0.350439 0.062398
0.663056 0 1.15966 -2.00001 -1 -1.00002 192 192 192 255 0.350439 0.062398
0.663054 0 1.42676 -0.999978 -2 1.99999 192 192 192 255 0.350439 0.062398
0.663056 0.255775 1.15966 -1.00002 2 -2.00001 192 192 192 255 0.350439 0.062398
0.663054 0.255775 1.42676 -1.99999 1 0.999985 192 192 192 255 0.350439 0.062398
0.749932 0.255775 1.15965 1.99999 1 -0.999985 192 192 192 255 0.385763 0.062398
0.74993 0.255775 1.42676 1.00002 2 2.00001 192 192 192 255 0.385763 0.062398
0.749932 0 1.15965 0.999975 -2 -1.99999 192 192 192 255 0.350439 0.062398
0.74993 0 1.42676 2.00001 -1 1.00001 192 192 192 255 0.350439 0.062398
0.728097 3.13946 1.43127 2 -1 1 192 192 192 255 0.166942 0.473617
0.728098 3.13946 -0.035521 0.999999 -2 -2 192 192 192 255 0.166942 0.473617
0.728097 3.21649 1.43127 1 2 2 192 192 192 255 0.166942 0.473617
0.728098 3.21649 -0.035521 2 1 -0.999999 192 192 192 255 0.166942 0.473617
-0.728095 3.21649 1.43127 -2 1 1 192 192 192 255 0.202266 0.473617
-0.728098 3.21649 -0.03552 -1 2 -2 192 192 192 255 0.202266 0.473617
-0.728095 3.13946 1.43127 -0.999999 -2 2 192 192 192 255 0.166942 0.473617
-0.728098 3.13946 -0.03552 -2 -1 -0.999996 192 192 192 255 0.166942 0.473617
0.728099 2.63946 0.074754 2 -1 1.00001 192 192 192 255 0.166942 0.473617
0.7281 2.63946 -0.313265 1 -2 -2 192 192 192 255 0.166942 0.473617
0.728099 2.71649 0.074754 1 2 2 192 192 192 255 0.166942 0.473617
0.7281 2.71649 -0.313265 2 1 -0.999995 192 192 192 255 0.166942 0.473617
-0.728097 2.71649 0.074755 -2 1 0.999995 192 192 192 255 0.202266 0.473617
-0.728096 2.71649 -0.313268 -0.999996 2 -2 192 192 192 255 0.202266 0.473617
-0.728097 2.63946 0.074755 -0.999999 -2 2 192 192 192 255 0.166942 0.473617
-0.728096 2.63946 -0.313268 -2 -1 -1.00001 192 192 192 255 0.166942 0.473617
0.728097 2.13946 -0.202994 2 -1 1 192 192 192 255 0.166942 0.473617
0.728098 2.13946 -0.591013 1 -2 -2 192 192 192 255 0.166942 0.473617
0.728097 2.21649 -0.202994 1 2 2 192 192 192 255 0.166942 0.473617
0.728098 2.21649 -0.591013 2 1 -0.999995 192 192 192 255 0.166942 0.473617
-0.728095 2.21649 -0.202993 -2 1 1.00002 192 192 192 255 0.202266 0.473617
-0.728098 2.21649 -0.591013 -1 2 -1.99999 192 192 192 255 0.202266 0.473617
-0.728095 2.13946 -0.202993 -0.999999 -2 2.00001 192 192 192 255 0.166942 0.473617
-0.728098 2.13946 -0.591013 -2 -1 -0.999985 192 192 192 255 0.166942 0.473617
0.728099 1.63946 -0.480738 2 -1 1.00001 192 192 192 255 0.166942 0.473617
0.7281 1.63946 -0.868758 1 -2 -2 192 192 192 255 0.166942 0.473617
0.728099 1.71649 -0.480738 1 2 2 192 192 192 255 0.166942 0.473617
0.7281 1.71649 -0.868758 2 1 -0.999995 192 192 192 255 0.166942 0.473617
-0.728097 1.71649 -0.480737 -2 1 0.999995 192 192 192 255 0.202266 0.473617
-0.728096 1.71649 -0.868761 -0.999996 2 -2 192 192 192 255 0.202266 0.473617
-0.728097 1.63946 -0.480737 -0.999999 -2 2 192 192 192 255 0.166942 0.473617
-0.728096 1.63946 -0.868761 -2 -1 -1.00001 192 192 192 255 0.166942 0.473617
0.728097 1.13946 -0.758486 2 -1 1 192 192 192 255 0.166942 0.473617
0.728098 1.13946 -1.14651 0.999999 -2 -2 192 192 192 255 0.166942 0.473617
0.728097 1.21649 -0.758486 1 2 2 192 192 192 255 0.166942 0.473617
0.728098 1.21649 -1.14651 2 1 -0.999995 192 192 192 255 0.166942 0.473617
-0.728095 1.21649 -0.758485 -2 1 1.00002 192 192 192 255 0.202266 0.473617
-0.728098 1.21649 -1.1465 -1 2 -1.99999 192 192 192 255 0.202266 0.473617
-0.728095 1.13946 -0.758485 -0.999999 -2 2.00001 192 192 192 255 0.166942 0.473617
-0.728098 1.13946 -1.1465 -2 -1 -0.999985 192 192 192 255 0.166942 0.473617
0.728099 0.639464 -1.03623 2 -1 1.00001 192 192 192 255 0.166942 0.473617
0.7281 0.639464 -1.42425 1 -2 -2 192 192 192 255 0.166942 0.473617
0.728099 0.716491 -1.03623 1 2 2 192 192 192 255 0.166942 0.473617
0.7281 0.716491 -1.42425 2 1 -0.999995 192 192 192 255 0.166942 0.473617
-0.728097 0.716491 -1.03623 -2 1 0.999995 192 192 192 255 0.202266 0.473617
-0.728096 0.716491 -1.42425 -0.999996 2 -2 192 192 192 255 0.202266 0.473617
-0.728097 0.639464 -1.03623 -0.999999 -2 2 192 192 192 255 0.166942 0.473617
-0.728096 0.639464 -1.42425 -2 -1 -1.00001 192 192 192 255 0.166942 0.473617
-0.805325 4.20746 1.36174 -3 2.00002 1.00005 192 192 192 255 0.3641 0.377267
-0.805328 4.20746 0.688039 -3 1.98687 -1.73958 192 192 192 255 0.3641 0.377267
-0.631005 4.20746 1.36174 3 0.999969 1.99997 192 192 192 255 0.3641 0.377267
-0.631007 4.20746 0.688039 3 2.4934 -0.869784 192 192 192 255 0.3641 0.377267
-0.631005 0.36741 1.36174 3.21163e-006 -3 3 192 192 192 255 0.231012 0.377347
-0.631007 0.36741 -1.41522 1.70027e-006 -3 -4 192 192 192 255 0.231012 0.377347
-0.805325 0.36741 1.36174 -3 -1.00002 3.00003 192 192 192 255 0.231012 0.377347
-0.805327 0.36741 -1.41522 -2 -2.00002 -0.999999 192 192 192 255 0.231012 0.377347
-0.631008 4.10865 1.24051 3 -1.00002 -1.00005 192 192 192 255 0.302936 0.377142
-0.631007 4.10865 0.776181 3 -2.49622 0.868217 192 192 192 255 0.302936 0.377142
-0.631008 0.499896 -1.28623 2 7.00762 1.73644 192 192 192 255 0.302936 0.377142
-0.631008 0.499896 1.24051 1 2 -2.00003 192 192 192 255 0.332145 0.377154
-0.805328 0.499896 1.24051 -3 1.99999 -0.99995 192 192 192 255 0.302936 0.377142
-0.805328 0.499896 -1.28623 -4 0.503783 0.868212 192 192 192 255 0.302936 0.377142
-0.805328 4.10865 0.776181 -3 -1.99236 1.73643 192 192 192 255 0.302936 0.377142
-0.805328 4.10865 1.24051 -3 -1.99997 -1.99997 192 192 192 255 0.302936 0.377142
0.805328 4.20746 1.36173 3 2.00001 1.00002 192 192 192 255 0.3641 0.377267
0.805329 4.20746 0.688037 4.00001 1.98685 -1.73957 192 192 192 255 0.3641 0.377267
0.631007 4.20746 1.36173 -4 0.999991 1.99998 192 192 192 255 0.3641 0.377267
0.631009 4.20746 0.688037 -3 2.49342 -0.869793 192 192 192 255 0.3641 0.377267
0.631007 0.36741 1.36173 1.60581e-006 -4 2 192 192 192 255 0.234328 0.37745
0.631009 0.36741 -1.41522 6.32093e-006 -2 -2 192 192 192 255 0.234328 0.37745
0.805328 0.36741 1.36173 3 -1 3.00001 192 192 192 255 0.234328 0.37745
0.80533 0.36741 -1.41522 2.00001 -2 -2 192 192 192 255 0.234328 0.37745
0.631008 4.10865 1.24051 -2 -1 -1.00001 192 192 192 255 0.302936 0.377142
0.631009 4.10865 0.776179 -3 -2.4962 0.86821 192 192 192 255 0.302936 0.377142
0.631009 0.499896 -1.28624 -2 3.00762 1.73643 192 192 192 255 0.332145 0.377154
0.631008 0.499896 1.24051 -2 3 -2.00002 192 192 192 255 0.302936 0.377142
0.805329 0.499896 1.24051 3 2 -0.999983 192 192 192 255 0.302936 0.377142
0.805329 0.499896 -1.28624 5 0.503807 0.868224 192 192 192 255 0.302936 0.377142
0.805329 4.10865 0.776179 2 -1.99237 1.73643 192 192 192 255 0.302936 0.377142
0.805329 4.10865 1.24051 3 -1.99999 -1.99999 192 192 192 255 0.302936 0.377142
-0.631005 0.499896 1.36174 2 2 2.99995 192 192 192 255 0.264536 0.377007
0.631007 0.499896 1.36173 -0.999997 2 3.99999 192 192 192 255 0.264536 0.377007
0.631009 0.499896 -1.41522 -0.999982 2.98684 -5.73958 192 192 192 255 0.264536 0.377007
0.80533 0.499896 -1.41522 2.00001 0.493419 -1.86979 192 192 192 255 0.264536 0.377007
-0.631007 0.499896 -1.41522 1 1.98684 -3.73958 192 192 192 255 0.328997 0.377267
-0.805327 0.499896 -1.41522 -3 0.493417 -2.8698 192 192 192 255 0.328997 0.377267
-0.772891 0.393686 -1.35166 -0.999987 2 -1.99999 192 192 192 255 0.202266 0.473617
-0.77289 0.393686 -1.24377 -2.00001 1 1.00002 192 192 192 255 0.202266 0.473617
-0.629323 0.393686 -1.35166 2.00001 1 -1.00006 192 192 192 255 0.166942 0.473617
-0.62932 0.393686 -1.24377 0.999985 2 1.99997 192 192 192 255 0.166942 0.473617
-0.629323 0.112325 -1.35166 1.00001 -2 -2.00003 192 192 192 255 0.108069 0.473617
-0.62932 0.112325 -1.24377 1.99999 -1 0.999945 192 192 192 255 0.108069 0.473617
-0.77289 0.112325 -1.24377 -1.00002 -2 2.00001 192 192 192 255 0.108069 0.473617
-0.772891 0.112325 -1.35166 -1.99999 -1 -0.999981 192 192 192 255 0.108069 0.473617
-0.77289 0.112325 -1.24377 -1.00002 -2 2.00001 192 192 192 255 0.142215 0.473617
-0.62932 0.112325 -1.24377 1.99999 -1 0.999945 192 192 192 255 0.142215 0.473617
-0.62932 0.393686 -1.24377 0.999985 2 1.99997 192 192 192 255 0.142215 0.473617
-0.77289 0.393686 -1.24377 -2.00001 1 1.00002 192 192 192 255 0.142215 0.473617
-0.629323 0.112325 -1.35166 1.00001 -2 -2.00003 192 192 192 255 0.142215 0.473617
-0.772891 0.112325 -1.35166 -1.99999 -1 -0.999981 192 192 192 255 0.142215 0.473617
-0.772891 0.393686 -1.35166 -0.999987 2 -1.99999 192 192 192 255 0.142215 0.473617
-0.629323 0.393686 -1.35166 2.00001 1 -1.00006 192 192 192 255 0.142215 0.473617
-0.778829 0.393686 1.23927 -0.999985 2 -1.99998 192 192 192 255 0.202266 0.473617
-0.778827 0.393686 1.34715 -2 1 1.00004 192 192 192 255 0.202266 0.473617
-0.634153 0.393686 1.23927 2.00001 1 -0.999964 192 192 192 255 0.166942 0.473617
-0.634155 0.393686 1.34715 1 2 2.00002 192 192 192 255 0.166942 0.473617
-0.634153 0.112325 1.23927 1.00001 -2 -1.99998 192 192 192 255 0.108069 0.473617
-0.634155 0.112325 1.34715 2 -1 1.00004 192 192 192 255 0.108069 0.473617
-0.778827 0.112325 1.34715 -1 -2 2.00002 192 192 192 255 0.108069 0.473617
-0.778829 0.112325 1.23927 -1.99999 -1 -0.999964 192 192 192 255 0.108069 0.473617
-0.778827 0.112325 1.34715 -1 -2 2.00002 192 192 192 255 0.142215 0.473617
-0.634155 0.112325 1.34715 2 -1 1.00004 192 192 192 255 0.142215 0.473617
-0.634155 0.393686 1.34715 1 2 2.00002 192 192 192 255 0.142215 0.473617
-0.778827 0.393686 1.34715 -2 1 1.00004 192 192 192 255 0.142215 0.473617
-0.634153 0.112325 1.23927 1.00001 -2 -1.99998 192 192 192 255 0.142215 0.473617
-0.778829 0.112325 1.23927 -1.99999 -1 -0.999964 192 192 192 255 0.142215 0.473617
-0.778829 0.393686 1.23927 -0.999985 2 -1.99998 192 192 192 255 0.142215 0.473617
-0.634153 0.393686 1.23927 2.00001 1 -0.999964 192 192 192 255 0.142215 0.473617
-0.744214 0.255775 -1.43128 -1 2 -1.99999 192 192 192 255 0.385763 0.062398
-0.744212 0.255775 -1.16417 -2 1 1.00002 192 192 192 255 0.385763 0.062398
-0.658002 0.255775 -1.43128 2 1 -1.00002 192 192 192 255 0.350439 0.062398
-0.658 0.255775 -1.16417 1 2 1.99999 192 192 192 255 0.350439 0.062398
-0.658002 0 -1.43128 1 -2 -2.00001 192 192 192 255 0.291565 0.062398
-0.658 0 -1.16417 2 -1 0.999985 192 192 192 255 0.291565 0.062398
-0.744212 0 -1.16417 -1 -2 2.00001 192 192 192 255 0.291565 0.062398
-0.744214 0 -1.43128 -2 -1 -0.999985 192 192 192 255 0.291565 0.062398
-0.744212 0 -1.16417 -1 -2 2.00001 192 192 192 255 0.325712 0.062398
-0.658 0 -1.16417 2 -1 0.999985 192 192 192 255 0.325712 0.062398
-0.658 0.255775 -1.16417 1 2 1.99999 192 192 192 255 0.325712 0.062398
-0.744212 0.255775 -1.16417 -2 1 1.00002 192 192 192 255 0.325712 0.062398
-0.658002 0 -1.43128 1 -2 -2.00001 192 192 192 255 0.325712 0.062398
-0.744214 0 -1.43128 -2 -1 -0.999985 192 192 192 255 0.325712 0.062398
-0.744214 0.255775 -1.43128 -1 2 -1.99999 192 192 192 255 0.325712 0.062398
-0.658002 0.255775 -1.43128 2 1 -1.00002 192 192 192 255 0.325712 0.062398
-0.749927 0.255775 1.15966 -1.00002 2 -2.00001 192 192 192 255 0.385763 0.062398
-0.749929 0.255775 1.42676 -1.99999 1 0.999985 192 192 192 255 0.385763 0.062398
-0.663055 0.255775 1.15966 1.99999 1 -1.00002 192 192 192 255 0.350439 0.062398
-0.663053 0.255775 1.42676 1.00002 2 1.99999 192 192 192 255 0.350439 0.062398
-0.663055 0 1.15966 0.999978 -2 -2.00001 192 192 192 255 0.291565 0.062398
-0.663053 0 1.42676 2.00001 -1 0.999985 192 192 192 255 0.291565 0.062398
-0.749929 0 1.42676 -0.999975 -2 1.99999 192 192 192 255 0.291565 0.062398
-0.749927 0 1.15966 -2.00001 -1 -1.00002 192 192 192 255 0.291565 0.062398
-0.749929 0 1.42676 -0.999975 -2 1.99999 192 192 192 255 0.325712 0.062398
-0.663053 0 1.42676 2.00001 -1 0.999985 192 192 192 255 0.325712 0.062398
-0.663053 0.255775 1.42676 1.00002 2 1.99999 192 192 192 255 0.325712 0.062398
-0.749929 0.255775 1.42676 -1.99999 1 0.999985 192 192 192 255 0.325712 0.062398
-0.663055 0 1.15966 0.999978 -2 -2.00001 192 192 192 255 0.325712 0.062398
-0.749927 0 1.15966 -2.00001 -1 -1.00002 192 192 192 255 0.325712 0.062398
-0.749927 0.255775 1.15966 -1.00002 2 -2.00001 192 192 192 255 0.325712 0.062398
-0.663055 0.255775 1.15966 1.99999 1 -1.00002 192 192 192 255 0.325712 0.062398
0.629323 0.393686 -1.35166 -1.00003 2 -1.99999 192 192 192 255 0.202266 0.473617
0.629324 0.393686 -1.24377 -1.99999 1 1.00002 192 192 192 255 0.202266 0.473617
0.772893 0.393686 -1.35166 1.99999 1 -1.00002 192 192 192 255 0.166942 0.473617
0.772894 0.393686 -1.24377 1.00003 2 1.99999 192 192 192 255 0.166942 0.473617
0.772893 0.112325 -1.35166 0.999973 -2 -2.00001 192 192 192 255 0.108069 0.473617
0.772894 0.112325 -1.24377 2.00001 -1 0.999981 192 192 192 255 0.108069 0.473617
0.629324 0.112325 -1.24377 -0.999972 -2 2.00001 192 192 192 255 0.108069 0.473617
0.629323 0.112325 -1.35166 -2.00001 -1 -0.999981 192 192 192 255 0.108069 0.473617
0.629324 0.112325 -1.24377 -0.999972 -2 2.00001 192 192 192 255 0.142215 0.473617
0.772894 0.112325 -1.24377 2.00001 -1 0.999981 192 192 192 255 0.142215 0.473617
0.772894 0.393686 -1.24377 1.00003 2 1.99999 192 192 192 255 0.142215 0.473617
0.629324 0.393686 -1.24377 -1.99999 1 1.00002 192 192 192 255 0.142215 0.473617
0.772893 0.112325 -1.35166 0.999973 -2 -2.00001 192 192 192 255 0.142215 0.473617
0.629323 0.112325 -1.35166 -2.00001 -1 -0.999981 192 192 192 255 0.142215 0.473617
0.629323 0.393686 -1.35166 -1.00003 2 -1.99999 192 192 192 255 0.142215 0.473617
0.772893 0.393686 -1.35166 1.99999 1 -1.00002 192 192 192 255 0.142215 0.473617
0.634157 0.393686 1.23927 -0.999987 2 -2.00001 192 192 192 255 0.202266 0.473617
0.634156 0.393686 1.34715 -2.00001 1 0.999981 192 192 192 255 0.202266 0.473617
0.77883 0.393686 1.23927 2.00001 1 -0.999964 192 192 192 255 0.166942 0.473617
0.778828 0.393686 1.34715 0.999985 2 2.00002 192 192 192 255 0.166942 0.473617
0.77883 0.112325 1.23927 1.00001 -2 -1.99998 192 192 192 255 0.108069 0.473617
0.778828 0.112325 1.34715 1.99999 -1 1.00004 192 192 192 255 0.108069 0.473617
0.634156 0.112325 1.34715 -1.00001 -2 1.99999 192 192 192 255 0.108069 0.473617
0.634157 0.112325 1.23927 -1.99999 -1 -1.00002 192 192 192 255 0.108069 0.473617
0.634156 0.112325 1.34715 -1.00001 -2 1.99999 192 192 192 255 0.142215 0.473617
0.778828 0.112325 1.34715 1.99999 -1 1.00004 192 192 192 255 0.142215 0.473617
0.778828 0.393686 1.34715 0.999985 2 2.00002 192 192 192 255 0.142215 0.473617
0.634156 0.393686 1.34715 -2.00001 1 0.999981 192 192 192 255 0.142215 0.473617
0.77883 0.112325 1.23927 1.00001 -2 -1.99998 192 192 192 255 0.142215 0.473617
0.634157 0.112325 1.23927 -1.99999 -1 -1.00002 192 192 192 255 0.142215 0.473617
0.634157 0.393686 1.23927 -0.999987 2 -2.00001 192 192 192 255 0.142215 0.473617
0.77883 0.393686 1.23927 2.00001 1 -0.999964 192 192 192 255 0.142215 0.473617
0.658004 0.255775 -1.43127 -0.999953 2 -2.00001 192 192 192 255 0.385763 0.062398
0.658002 0.255775 -1.16417 -1.99998 1 0.999985 192 192 192 255 0.385763 0.062398
0.744212 0.255775 -1.43127 2.00002 1 -1.00002 192 192 192 255 0.350439 0.062398
0.744214 0.255775 -1.16417 1.00005 2 1.99999 192 192 192 255 0.350439 0.062398
0.744212 0 -1.43127 1.00005 -2 -2.00001 192 192 192 255 0.291565 0.062398
0.744214 0 -1.16417 2.00002 -1 0.999985 192 192 192 255 0.291565 0.062398
0.658002 0 -1.16417 -0.999953 -2 1.99999 192 192 192 255 0.291565 0.062398
0.658004 0 -1.43127 -1.99998 -1 -1.00001 192 192 192 255 0.291565 0.062398
0.658002 0 -1.16417 -0.999953 -2 1.99999 192 192 192 255 0.325712 0.062398
0.744214 0 -1.16417 2.00002 -1 0.999985 192 192 192 255 0.325712 0.062398
0.744214 0.255775 -1.16417 1.00005 2 1.99999 192 192 192 255 0.325712 0.062398
0.658002 0.255775 -1.16417 -1.99998 1 0.999985 192 192 192 255 0.325712 0.062398
0.744212 0 -1.43127 1.00005 -2 -2.00001 192 192 192 255 0.325712 0.062398
0.658004 0 -1.43127 -1.99998 -1 -1.00001 192 192 192 255 0.325712 0.062398
0.658004 0.255775 -1.43127 -0.999953 2 -2.00001 192 192 192 255 0.325712 0.062398
0.744212 0.255775 -1.43127 2.00002 1 -1.00002 192 192 192 255 0.325712 0.062398
0.663056 0.255775 1.15966 -1.00002 2 -2.00001 192 192 192 255 0.385763 0.062398
0.663054 0.255775 1.42676 -1.99999 1 0.999985 192 192 192 255 0.385763 0.062398
0.749932 0.255775 1.15965 1.99999 1 -0.999985 192 192 192 255 0.350439 0.062398
0.74993 0.255775 1.42676 1.00002 2 2.00001 192 192 192 255 0.350439 0.062398
0.749932 0 1.15965 0.999975 -2 -1.99999 192 192 192 255 0.291565 0.062398
0.74993 0 1.42676 2.00001 -1 1.00001 192 192 192 255 0.291565 0.062398
0.663054 0 1.42676 -0.999978 -2 1.99999 192 192 192 255 0.291565 0.062398
0.663056 0 1.15966 -2.00001 -1 -1.00002 192 192 192 255 0.291565 0.062398
0.663054 0 1.42676 -0.999978 -2 1.99999 192 192 192 255 0.325712 0.062398
0.74993 0 1.42676 2.00001 -1 1.00001 192 192 192 255 0.325712 0.062398
0.74993 0.255775 1.42676 1.00002 2 2.00001 192 192 192 255 0.325712 0.062398
0.663054 0.255775 1.42676 -1.99999 1 0.999985 192 192 192 255 0.325712 0.062398
0.749932 0 1.15965 0.999975 -2 -1.99999 192 192 192 255 0.325712 0.062398
0.663056 0 1.15966 -2.00001 -1 -1.00002 192 192 192 255 0.325712 0.062398
0.663056 0.255775 1.15966 -1.00002 2 -2.00001 192 192 192 255 0.325712 0.062398
0.749932 0.255775 1.15965 1.99999 1 -0.999985 192 192 192 255 0.325712 0.062398
0.728097 3.21649 1.43127 1 2 2 192 192 192 255 0.202266 0.473617
0.728098 3.21649 -0.035521 2 1 -0.999999 192 192 192 255 0.202266 0.473617
-0.728095 3.21649 1.43127 -2 1 1 192 192 192 255 0.166942 0.473617
-0.728098 3.21649 -0.03552 -1 2 -2 192 192 192 255 0.166942 0.473617
-0.728095 3.13946 1.43127 -0.999999 -2 2 192 192 192 255 0.108069 0.473617
-0.728098 3.13946 -0.03552 -2 -1 -0.999996 192 192 192 255 0.108069 0.473617
0.728098 3.13946 -0.035521 0.999999 -2 -2 192 192 192 255 0.108069 0.473617
0.728097 3.13946 1.43127 2 -1 1 192 192 192 255 0.108069 0.473617
0.728098 3.13946 -0.035521 0.999999 -2 -2 192 192 192 255 0.142215 0.473617
-0.728098 3.13946 -0.03552 -2 -1 -0.999996 192 192 192 255 0.142215 0.473617
-0.728098 3.21649 -0.03552 -1 2 -2 192 192 192 255 0.142215 0.473617
0.728098 3.21649 -0.035521 2 1 -0.999999 192 192 192 255 0.142215 0.473617
-0.728095 3.13946 1.43127 -0.999999 -2 2 192 192 192 255 0.142215 0.473617
0.728097 3.13946 1.43127 2 -1 1 192 192 192 255 0.142215 0.473617
0.728097 3.21649 1.43127 1 2 2 192 192 192 255 0.142215 0.473617
-0.728095 3.21649 1.43127 -2 1 1 192 192 192 255 0.142215 0.473617
0.728099 2.71649 0.074754 1 2 2 192 192 192 255 0.202266 0.473617
0.7281 2.71649 -0.313265 2 1 -0.999995 192 192 192 255 0.202266 0.473617
-0.728097 2.71649 0.074755 -2 1 0.999995 192 192 192 255 0.166942 0.473617
-0.728096 2.71649 -0.313268 -0.999996 2 -2 192 192 192 255 0.166942 0.473617
-0.728097 2.63946 0.074755 -0.999999 -2 2 192 192 192 255 0.108069 0.473617
-0.728096 2.63946 -0.313268 -2 -1 -1.00001 192 192 192 255 0.108069 0.473617
0.7281 2.63946 -0.313265 1 -2 -2 192 192 192 255 0.108069 0.473617
0.728099 2.63946 0.074754 2 -1 1.00001 192 192 192 255 0.108069 0.473617
0.7281 2.63946 -0.313265 1 -2 -2 192 192 192 255 0.142215 0.473617
-0.728096 2.63946 -0.313268 -2 -1 -1.00001 192 192 192 255 0.142215 0.473617
-0.728096 2.71649 -0.313268 -0.999996 2 -2 192 192 192 255 0.142215 0.473617
0.7281 2.71649 -0.313265 2 1 -0.999995 192 192 192 255 0.142215 0.473617
-0.728097 2.63946 0.074755 -0.999999 -2 2 192 192 192 255 0.142215 0.473617
0.728099 2.63946 0.074754 2 -1 1.00001 192 192 192 255 0.142215 0.473617
0.728099 2.71649 0.074754 1 2 2 192 192 192 255 0.142215 0.473617
-0.728097 2.71649 0.074755 -2 1 0.999995 192 192 192 255 0.142215 0.473617
0.728097 2.21649 -0.202994 1 2 2 192 192 192 255 0.202266 0.473617
0.728098 2.21649 -0.591013 2 1 -0.999995 192 192 192 255 0.202266 0.473617
-0.728095 2.21649 -0.202993 -2 1 1.00002 192 192 192 255 0.166942 0.473617
-0.728098 2.21649 -0.591013 -1 2 -1.99999 192 192 192 255 0.166942 0.473617
-0.728095 2.13946 -0.202993 -0.999999 -2 2.00001 192 192 192 255 0.108069 0.473617
-0.728098 2.13946 -0.591013 -2 -1 -0.999985 192 192 192 255 0.108069 0.473617
0.728098 2.13946 -0.591013 1 -2 -2 192 192 192 255 0.108069 0.473617
0.728097 2.13946 -0.202994 2 -1 1 192 192 192 255 0.108069 0.473617
0.728098 2.13946 -0.591013 1 -2 -2 192 192 192 255 0.142215 0.473617
-0.728098 2.13946 -0.591013 -2 -1 -0.999985 192 192 192 255 0.142215 0.473617
-0.728098 2.21649 -0.591013 -1 2 -1.99999 192 192 192 255 0.142215 0.473617
0.728098 2.21649 -0.591013 2 1 -0.999995 192 192 192 255 0.142215 0.473617
-0.728095 2.13946 -0.202993 -0.999999 -2 2.00001 192 192 192 255 0.142215 0.473617
0.728097 2.13946 -0.202994 2 -1 1 192 192 192 255 0.142215 0.473617
0.728097 2.21649 -0.202994 1 2 2 192 192 192 255 0.142215 0.473617
-0.728095 2.21649 -0.202993 -2 1 1.00002 192 192 192 255 0.142215 0.473617
0.728099 1.71649 -0.480738 1 2 2 192 192 192 255 0.202266 0.473617
0.7281 1.71649 -0.868758 2 1 -0.999995 192 192 192 255 0.202266 0.473617
-0.728097 1.71649 -0.480737 -2 1 0.999995 192 192 192 255 0.166942 0.473617
-0.728096 1.71649 -0.868761 -0.999996 2 -2 192 192 192 255 0.166942 0.473617
-0.728097 1.63946 -0.480737 -0.999999 -2 2 192 192 192 255 0.108069 0.473617
-0.728096 1.63946 -0.868761 -2 -1 -1.00001 192 192 192 255 0.108069 0.473617
0.7281 1.63946 -0.868758 1 -2 -2 192 192 192 255 0.108069 0.473617
0.728099 1.63946 -0.480738 2 -1 1.00001 192 192 192 255 0.108069 0.473617
0.7281 1.63946 -0.868758 1 -2 -2 192 192 192 255 0.142215 0.473617
-0.728096 1.63946 -0.868761 -2 -1 -1.00001 192 192 192 255 0.142215 0.473617
-0.728096 1.71649 -0.868761 -0.999996 2 -2 192 192 192 255 0.142215 0.473617
0.7281 1.71649 -0.868758 2 1 -0.999995 192 192 192 255 0.142215 0.473617
-0.728097 1.63946 -0.480737 -0.999999 -2 2 192 192 192 255 0.142215 0.473617
0.728099 1.63946 -0.480738 2 -1 1.00001 192 192 192 255 0.142215 0.473617
0.728099 1.71649 -0.480738 1 2 2 192 192 192 255 0.142215 0.473617
-0.728097 1.71649 -0.480737 -2 1 0.999995 192 192 192 255 0.142215 0.473617
0.728097 1.21649 -0.758486 1 2 2 192 192 192 255 0.202266 0.473617
0.728098 1.21649 -1.14651 2 1 -0.999995 192 192 192 255 0.202266 0.473617
-0.728095 1.21649 -0.758485 -2 1 1.00002 192 192 192 255 0.166942 0.473617
-0.728098 1.21649 -1.1465 -1 2 -1.99999 192 192 192 255 0.166942 0.473617
-0.728095 1.13946 -0.758485 -0.999999 -2 2.00001 192 192 192 255 0.108069 0.473617
-0.728098 1.13946 -1.1465 -2 -1 -0.999985 192 192 192 255 0.108069 0.473617
0.728098 1.13946 -1.14651 0.999999 -2 -2 192 192 192 255 0.108069 0.473617
0.728097 1.13946 -0.758486 2 -1 1 192 192 192 255 0.108069 0.473617
0.728098 1.13946 -1.14651 0.999999 -2 -2 192 192 192 255 0.142215 0.473617
-0.728098 1.13946 -1.1465 -2 -1 -0.999985 192 192 192 255 0.142215 0.473617
-0.728098 1.21649 -1.1465 -1 2 -1.99999 192 192 192 255 0.142215 0.473617
0.728098 1.21649 -1.14651 2 1 -0.999995 192 192 192 255 0.142215 0.473617
-0.728095 1.13946 -0.758485 -0.999999 -2 2.00001 192 192 192 255 0.142215 0.473617
0.728097 1.13946 -0.758486 2 -1 1 192 192 192 255 0.142215 0.473617
0.728097 1.21649 -0.758486 1 2 2 192 192 192 255 0.142215 0.473617
-0.728095 1.21649 -0.758485 -2 1 1.00002 192 192 192 255 0.142215 0.473617
0.728099 0.716491 -1.03623 1 2 2 192 192 192 255 0.202266 0.473617
0.7281 0.716491 -1.42425 2 1 -0.999995 192 192 192 255 0.202266 0.473617
-0.728097 0.716491 -1.03623 -2 1 0.999995 192 192 192 255 0.166942 0.473617
-0.728096 0.716491 -1.42425 -0.999996 2 -2 192 192 192 255 0.166942 0.473617
-0.728097 0.639464 -1.03623 -0.999999 -2 2 192 192 192 255 0.108069 0.473617
-0.728096 0.639464 -1.42425 -2 -1 -1.00001 192 192 192 255 0.108069 0.473617
0.7281 0.639464 -1.42425 1 -2 -2 192 192 192 255 0.108069 0.473617
0.728099 0.639464 -1.03623 2 -1 1.00001 192 192 192 255 0.108069 0.473617
0.7281 0.639464 -1.42425 1 -2 -2 192 192 192 255 0.142215 0.473617
-0.728096 0.639464 -1.42425 -2 -1 -1.00001 192 192 192 255 0.142215 0.473617
-0.728096 0.716491 -1.42425 -0.999996 2 -2 192 192 192 255 0.142215 0.473617
0.7281 0.716491 -1.42425 2 1 -0.999995 192 192 192 255 0.142215 0.473617
-0.728097 0.639464 -1.03623 -0.999999 -2 2 192 192 192 255 0.142215 0.473617
0.728099 0.639464 -1.03623 2 -1 1.00001 192 192 192 255 0.142215 0.473617
0.728099 0.716491 -1.03623 1 2 2 192 192 192 255 0.142215 0.473617
-0.728097 0.716491 -1.03623 -2 1 0.999995 192 192 192 255 0.142215 0.473617
-0.805328 4.20746 0.688039 -3 1.98687 -1.73958 192 192 192 255 0.328997 0.377267
-0.631007 4.20746 0.688039 3 2.4934 -0.869784 192 192 192 255 0.328997 0.377267
-0.805325 0.36741 1.36174 -3 -1.00002 3.00003 192 192 192 255 0.264536 0.377007
-0.631005 0.36741 1.36174 3.21163e-006 -3 3 192 192 192 255 0.264536 0.377007
-0.631005 4.20746 1.36174 3 0.999969 1.99997 192 192 192 255 0.264536 0.377007
-0.805325 4.20746 1.36174 -3 2.00002 1.00005 192 192 192 255 0.264536 0.377007
-0.631005 4.20746 1.36174 3 0.999969 1.99997 192 192 192 255 0.302936 0.377142
-0.631007 4.20746 0.688039 3 2.4934 -0.869784 192 192 192 255 0.302936 0.377142
-0.631007 0.499896 -1.41522 1 1.98684 -3.73958 192 192 192 255 0.302936 0.377142
-0.805327 0.499896 -1.41522 -3 0.493417 -2.8698 192 192 192 255 0.302936 0.377142
-0.805328 4.20746 0.688039 -3 1.98687 -1.73958 192 192 192 255 0.302936 0.377142
-0.805325 4.20746 1.36174 -3 2.00002 1.00005 192 192 192 255 0.302936 0.377142
-0.805325 0.36741 1.36174 -3 -1.00002 3.00003 192 192 192 255 0.302936 0.377142
-0.631008 0.499896 -1.28623 2 7.00762 1.73644 192 192 192 255 0.332145 0.377154
-0.805328 0.499896 -1.28623 -4 0.503783 0.868212 192 192 192 255 0.332145 0.377154
-0.805328 0.499896 1.24051 -3 1.99999 -0.99995 192 192 192 255 0.332145 0.377154
-0.631008 0.499896 1.24051 1 2 -2.00003 192 192 192 255 0.233659 0.377262
-0.805328 0.499896 1.24051 -3 1.99999 -0.99995 192 192 192 255 0.233659 0.377262
-0.805328 4.10865 1.24051 -3 -1.99997 -1.99997 192 192 192 255 0.233659 0.377262
-0.631008 4.10865 1.24051 3 -1.00002 -1.00005 192 192 192 255 0.233659 0.377262
-0.631008 0.499896 -1.28623 2 7.00762 1.73644 192 192 192 255 0.233659 0.377262
-0.631007 4.10865 0.776181 3 -2.49622 0.868217 192 192 192 255 0.233659 0.377262
-0.805328 4.10865 0.776181 -3 -1.99236 1.73643 192 192 192 255 0.233659 0.377262
-0.805328 0.499896 -1.28623 -4 0.503783 0.868212 192 192 192 255 0.233659 0.377262
-0.631007 4.10865 0.776181 3 -2.49622 0.868217 192 192 192 255 0.206038 0.377347
-0.631008 4.10865 1.24051 3 -1.00002 -1.00005 192 192 192 255 0.206038 0.377347
-0.805328 4.10865 1.24051 -3 -1.99997 -1.99997 192 192 192 255 0.206038 0.377347
-0.805328 4.10865 0.776181 -3 -1.99236 1.73643 192 192 192 255 0.206038 0.377347
0.80533 0.36741 -1.41522 2.00001 -2 -2 192 192 192 255 0.264536 0.377007
0.631009 0.36741 -1.41522 6.32093e-006 -2 -2 192 192 192 255 0.264536 0.377007
0.805328 0.36741 1.36173 3 -1 3.00001 192 192 192 255 0.264536 0.377007
0.805328 4.20746 1.36173 3 2.00001 1.00002 192 192 192 255 0.264536 0.377007
0.631007 4.20746 1.36173 -4 0.999991 1.99998 192 192 192 255 0.264536 0.377007
0.631007 0.36741 1.36173 1.60581e-006 -4 2 192 192 192 255 0.264536 0.377007
0.631007 4.20746 1.36173 -4 0.999991 1.99998 192 192 192 255 0.302936 0.377142
0.631009 4.20746 0.688037 -3 2.49342 -0.869793 192 192 192 255 0.302936 0.377142
0.631007 0.499896 1.36173 -0.999997 2 3.99999 192 192 192 255 0.302936 0.377142
0.805328 0.36741 1.36173 3 -1 3.00001 192 192 192 255 0.302936 0.377142
0.80533 0.36741 -1.41522 2.00001 -2 -2 192 192 192 255 0.302936 0.377142
0.80533 0.499896 -1.41522 2.00001 0.493419 -1.86979 192 192 192 255 0.302936 0.377142
0.805329 4.20746 0.688037 4.00001 1.98685 -1.73957 192 192 192 255 0.302936 0.377142
0.805328 4.20746 1.36173 3 2.00001 1.00002 192 192 192 255 0.302936 0.377142
0.631008 0.499896 1.24051 -2 3 -2.00002 192 192 192 255 0.332145 0.377154
0.805329 0.499896 1.24051 3 2 -0.999983 192 192 192 255 0.332145 0.377154
0.805329 0.499896 -1.28624 5 0.503807 0.868224 192 192 192 255 0.332145 0.377154
0.631008 0.499896 1.24051 -2 3 -2.00002 192 192 192 255 0.233659 0.377262
0.631008 4.10865 1.24051 -2 -1 -1.00001 192 192 192 255 0.233659 0.377262
0.805329 4.10865 1.24051 3 -1.99999 -1.99999 192 192 192 255 0.233659 0.377262
0.805329 0.499896 1.24051 3 2 -0.999983 192 192 192 255 0.233659 0.377262
0.631009 0.499896 -1.28624 -2 3.00762 1.73643 192 192 192 255 0.233659 0.377262
0.805329 0.499896 -1.28624 5 0.503807 0.868224 192 192 192 255 0.233659 0.377262
0.805329 4.10865 0.776179 2 -1.99237 1.73643 192 192 192 255 0.233659 0.377262
0.631009 4.10865 0.776179 -3 -2.4962 0.86821 192 192 192 255 0.233659 0.377262
0.631009 4.10865 0.776179 -3 -2.4962 0.86821 192 192 192 255 0.206038 0.377347
0.805329 4.10865 0.776179 2 -1.99237 1.73643 192 192 192 255 0.206038 0.377347
0.805329 4.10865 1.24051 3 -1.99999 -1.99999 192 192 192 255 0.206038 0.377347
0.631008 4.10865 1.24051 -2 -1 -1.00001 192 192 192 255 0.206038 0.377347
-0.631005 0.499896 1.36174 2 2 2.99995 192 192 192 255 0.302936 0.377142
-0.631008 0.499896 1.24051 1 2 -2.00003 192 192 192 255 0.302936 0.377142
0.631009 0.499896 -1.41522 -0.999982 2.98684 -5.73958 192 192 192 255 0.302936 0.377142
0.631009 0.499896 -1.28624 -2 3.00762 1.73643 192 192 192 255 0.302936 0.377142
0.805329 4.20746 0.688037 4.00001 1.98685 -1.73957 192 192 192 255 0.328997 0.377267
0.80533 0.499896 -1.41522 2.00001 0.493419 -1.86979 192 192 192 255 0.328997 0.377267
0.631009 0.499896 -1.41522 -0.999982 2.98684 -5.73958 192 192 192 255 0.328997 0.377267
0.631009 4.20746 0.688037 -3 2.49342 -0.869793 192 192 192 255 0.328997 0.377267
-0.805327 0.499896 -1.41522 -3 0.493417 -2.8698 192 192 192 255 0.264536 0.377007
-0.631007 0.499896 -1.41522 1 1.98684 -3.73958 192 192 192 255 0.264536 0.377007
-0.631007 0.36741 -1.41522 1.70027e-006 -3 -4 192 192 192 255 0.264536 0.377007
-0.805327 0.36741 -1.41522 -2 -2.00002 -0.999999 192 192 192 255 0.264536 0.377007
-0.805327 0.36741 -1.41522 -2 -2.00002 -0.999999 192 192 192 255 0.302936 0.377142
-0.631007 0.36741 -1.41522 1.70027e-006 -3 -4 192 192 192 255 0.234328 0.37745
-0.631005 0.36741 1.36174 3.21163e-006 -3 3 192 192 192 255 0.234328 0.37745
-0.631008 0.499896 -1.28623 2 7.00762 1.73644 192 192 192 255 0.302062 0.377154
-0.631008 0.499896 1.24051 1 2 -2.00003 192 192 192 255 0.302062 0.377154
-0.631005 0.499896 1.36174 2 2 2.99995 192 192 192 255 0.302062 0.377154
0.631007 0.499896 1.36173 -0.999997 2 3.99999 192 192 192 255 0.302062 0.377154
0.631008 0.499896 1.24051 -2 3 -2.00002 192 192 192 255 0.302062 0.377154
0.631009 0.499896 -1.28624 -2 3.00762 1.73643 192 192 192 255 0.302062 0.377154
0.631009 0.499896 -1.41522 -0.999982 2.98684 -5.73958 192 192 192 255 0.302062 0.377154
-0.631007 0.499896 -1.41522 1 1.98684 -3.73958 192 192 192 255 0.302062 0.377154
3 0 1 3 
3 0 3 2 
3 150 151 5 
3 150 5 4 
3 152 153 7 
3 152 7 6 
3 154 155 156 
3 154 156 157 
3 158 159 160 
3 158 160 161 
3 162 163 164 
3 162 164 165 
3 8 9 11 
3 8 11 10 
3 166 167 13 
3 166 13 12 
3 168 169 15 
3 168 15 14 
3 170 171 172 
3 170 172 173 
3 174 175 176 
3 174 176 177 
3 178 179 180 
3 178 180 181 
3 16 17 19 
3 16 19 18 
3 182 183 21 
3 182 21 20 
3 184 185 23 
3 184 23 22 
3 186 187 188 
3 186 188 189 
3 190 191 192 
3 190 192 193 
3 194 195 196 
3 194 196 197 
3 24 25 27 
3 24 27 26 
3 198 199 29 
3 198 29 28 
3 200 201 31 
3 200 31 30 
3 202 203 204 
3 202 204 205 
3 206 207 208 
3 206 208 209 
3 210 211 212 
3 210 212 213 
3 32 33 35 
3 32 35 34 
3 214 215 37 
3 214 37 36 
3 216 217 39 
3 216 39 38 
3 218 219 220 
3 218 220 221 
3 222 223 224 
3 222 224 225 
3 226 227 228 
3 226 228 229 
3 40 41 43 
3 40 43 42 
3 230 231 45 
3 230 45 44 
3 232 233 47 
3 232 47 46 
3 234 235 236 
3 234 236 237 
3 238 239 240 
3 238 240 241 
3 242 243 244 
3 242 244 245 
3 48 49 51 
3 48 51 50 
3 246 247 53 
3 246 53 52 
3 248 249 55 
3 248 55 54 
3 250 251 252 
3 250 252 253 
3 254 255 256 
3 254 256 257 
3 258 259 260 
3 258 260 261 
3 56 57 59 
3 56 59 58 
3 262 263 61 
3 262 61 60 
3 264 265 63 
3 264 63 62 
3 266 267 268 
3 266 268 269 
3 270 271 272 
3 270 272 273 
3 274 275 276 
3 274 276 277 
3 64 65 67 
3 64 67 66 
3 278 279 69 
3 278 69 68 
3 280 281 71 
3 280 71 70 
3 282 283 284 
3 282 284 285 
3 286 287 288 
3 286 288 289 
3 290 291 292 
3 290 292 293 
3 72 73 75 
3 72 75 74 
3 294 295 77 
3 294 77 76 
3 296 297 79 
3 296 79 78 
3 298 299 300 
3 298 300 301 
3 302 303 304 
3 302 304 305 
3 306 307 308 
3 306 308 309 
3 80 81 83 
3 80 83 82 
3 310 311 85 
3 310 85 84 
3 312 313 87 
3 312 87 86 
3 314 315 316 
3 314 316 317 
3 318 319 320 
3 318 320 321 
3 322 323 324 
3 322 324 325 
3 88 89 91 
3 88 91 90 
3 326 327 93 
3 326 93 92 
3 328 329 95 
3 328 95 94 
3 330 331 332 
3 330 332 333 
3 334 335 336 
3 334 336 337 
3 338 339 340 
3 338 340 341 
3 96 97 99 
3 96 99 98 
3 342 343 101 
3 342 101 100 
3 344 345 103 
3 344 103 102 
3 346 347 348 
3 346 348 349 
3 350 351 352 
3 350 352 353 
3 354 355 356 
3 354 356 357 
3 104 105 107 
3 104 107 106 
3 358 359 109 
3 358 109 108 
3 360 361 111 
3 360 111 110 
3 362 363 364 
3 362 364 365 
3 366 367 368 
3 366 368 369 
3 370 371 372 
3 370 372 373 
3 112 114 115 
3 112 115 113 
3 116 118 119 
3 116 119 117 
3 374 375 148 
3 374 148 149 
3 376 377 144 
3 376 144 378 
3 376 378 379 
3 380 120 121 
3 380 121 381 
3 381 121 122 
3 381 122 382 
3 383 125 126 
3 383 126 384 
3 384 126 127 
3 384 127 385 
3 385 127 124 
3 385 124 386 
3 387 388 389 
3 387 389 123 
3 390 391 392 
3 390 392 393 
3 394 395 396 
3 394 396 397 
3 398 399 400 
3 398 400 401 
3 128 129 131 
3 128 131 130 
3 132 133 135 
3 132 135 134 
3 146 147 402 
3 146 402 403 
3 404 405 406 
3 404 406 145 
3 404 145 407 
3 408 409 137 
3 408 137 136 
3 139 410 408 
3 139 408 136 
3 141 140 411 
3 141 411 412 
3 141 412 413 
3 414 415 143 
3 414 143 142 
3 415 411 140 
3 415 140 143 
3 138 416 417 
3 138 417 418 
3 419 420 421 
3 419 421 422 
3 423 424 425 
3 423 425 426 
3 427 428 429 
3 427 429 430 
3 431 432 120 
3 431 120 380 
3 409 433 434 
3 409 434 137 
3 435 436 437 
3 435 437 438 
3 141 413 414 
3 141 414 142 
3 439 440 441 
3 439 441 442 
3 125 383 443 
3 125 443 386 
3 125 386 124 
3 441 440 146 
3 441 146 403 
3 444 133 132 
3 444 132 445 
3 377 407 145 
3 377 145 144 
3 446 447 448 
3 446 448 449 
3 446 449 450 
3 446 450 451 
3 446 451 452 
3 446 452 453 
